<?xml version="1.0" encoding="UTF-8" standalone="no"?>
<!-- Created with Inkscape (http://www.inkscape.org/) -->

<svg
   xmlns:dc="http://purl.org/dc/elements/1.1/"
   xmlns:cc="http://creativecommons.org/ns#"
   xmlns:rdf="http://www.w3.org/1999/02/22-rdf-syntax-ns#"
   xmlns:svg="http://www.w3.org/2000/svg"
   xmlns="http://www.w3.org/2000/svg"
   xmlns:sodipodi="http://sodipodi.sourceforge.net/DTD/sodipodi-0.dtd"
   xmlns:inkscape="http://www.inkscape.org/namespaces/inkscape"
   width="388.59766"
   height="228.64648"
   id="svg2"
   sodipodi:version="0.32"
   inkscape:version="0.92.2 (5c3e80d, 2017-08-06)"
   sodipodi:docname="logo.svg"
   inkscape:output_extension="org.inkscape.output.svg.inkscape"
   version="1.0"
   inkscape:export-filename="C:\Users\saula\Documents\GitHub\logo\logo_512.png"
   inkscape:export-xdpi="126.49"
   inkscape:export-ydpi="126.49">
  <defs
     id="defs4" />
  <sodipodi:namedview
     id="base"
     pagecolor="#ffffff"
     bordercolor="#666666"
     borderopacity="1.0"
     gridtolerance="10000"
     guidetolerance="10"
     objecttolerance="10"
     inkscape:pageopacity="0.0"
     inkscape:pageshadow="2"
     inkscape:zoom="0.63"
     inkscape:cx="301.4304"
     inkscape:cy="-84.323456"
     inkscape:document-units="px"
     inkscape:current-layer="layer1"
     inkscape:window-width="1920"
     inkscape:window-height="1017"
     inkscape:window-x="1912"
     inkscape:window-y="-8"
     showgrid="false"
     fit-margin-top="0"
     fit-margin-left="0"
     fit-margin-right="0"
     fit-margin-bottom="0"
     inkscape:window-maximized="1" />
  <metadata
     id="metadata7">
    <rdf:RDF>
      <cc:Work
         rdf:about="">
        <dc:format>image/svg+xml</dc:format>
        <dc:type
           rdf:resource="http://purl.org/dc/dcmitype/StillImage" />
        <dc:title></dc:title>
      </cc:Work>
    </rdf:RDF>
  </metadata>
  <g
     inkscape:label="Layer 1"
     inkscape:groupmode="layer"
     id="layer1"
     transform="translate(535.58956,385.69572)">
    <path
       style="opacity:1;vector-effect:none;fill:#0088aa;fill-opacity:1;stroke:none;stroke-width:1.90652442;stroke-linecap:butt;stroke-linejoin:miter;stroke-miterlimit:4;stroke-dasharray:none;stroke-dashoffset:0;stroke-opacity:1"
       d="m 278.36914,-484.6875 a 194.29849,114.3235 0 0 0 -21.29687,0.82617 c 2.89443,6.06409 6.57215,13.72833 7.60742,15.84961 1.4567,2.98479 2.04458,3.2427 11.11328,4.85547 19.0784,3.39292 38.19117,11.88784 53.57617,23.81445 8.628,6.68851 23.5,21.61838 23.5,23.5918 0,0.59736 0.40933,1.08594 0.91016,1.08594 2.05165,0 20.08984,31.47121 20.08984,35.05078 0,0.57688 0.71472,2.43062 1.58789,4.11914 4.07634,7.88276 8.38824,31.46347 8.40235,45.95117 0.0104,10.71833 -1.50721,17.86534 -5.41602,25.50977 -3.21322,6.28406 -14.94644,16.68931 -24.79492,21.99023 -1.56015,0.83974 -1.35191,1.68907 2.23047,9.15235 0.62149,1.29478 1.71986,3.74101 2.93359,6.4375 A 194.29849,114.3235 0 0 0 472.66797,-370.36328 194.29849,114.3235 0 0 0 278.36914,-484.6875 Z"
       transform="translate(-619.65987,98.991783)"
       id="path4618"
       inkscape:connector-curvature="0" />
    <path
       style="opacity:1;vector-effect:none;fill:#ff2a2a;fill-opacity:1;stroke:none;stroke-width:1.90652442;stroke-linecap:butt;stroke-linejoin:miter;stroke-miterlimit:4;stroke-dasharray:none;stroke-dashoffset:0;stroke-opacity:1"
       d="m 203.86523,-475.83789 a 194.29849,114.3235 0 0 0 -119.794918,105.47461 194.29849,114.3235 0 0 0 194.298828,114.32226 194.29849,114.3235 0 0 0 27.27148,-1.25195 l -2.12695,-5.11914 -2.14453,-5.25 h -12.36328 c -14.2778,-0.001 -25.38755,-2.2332 -35.93945,-7.21875 -6.7919,-3.20901 -15.44555,-8.60237 -16.03125,-9.99219 -0.1834,-0.43498 -0.76372,-0.79101 -1.29102,-0.79101 -1.0385,0 -1.006,0.0253 -8.375,-6.24414 -20.2822,-17.2559 -35.9873,-40.06151 -45.2832,-65.75586 -4.9681,-13.73213 -7.21485,-26.70541 -7.21485,-41.61524 0.003,-28.34132 8.8619,-44.93879 29.5625,-55.38476 3.8147,-1.925 7.11981,-3.60993 7.34571,-3.74414 0.3592,-0.21342 -0.42814,-2.0604 -4.05664,-9.50586 -0.16216,-0.3327 -2.02785,-4.16781 -3.85743,-7.92383 z"
       transform="translate(-619.65987,98.991783)"
       id="path4558"
       inkscape:connector-curvature="0" />
  </g>
</svg>
